<svg xmlns="http://www.w3.org/2000/svg" viewBox="0 0 48 48"><defs><style>.cls-1,.cls-2{fill:none;}.cls-2{stroke:#000;stroke-linecap:round;stroke-linejoin:round;stroke-width:4px;}</style></defs><title>gear_24</title><g data-name="レイヤー 2" id="レイヤー_2"><g data-name="Rect（最後透明に）" id="Rect_最後透明に_"><rect height="48" width="48" class="cls-1"/></g><g id="icon"><path d="M14.67,36a9.66,9.66,0,0,1,.94,5,17.36,17.36,0,0,0,2.47,1c3.85-4.19,8.16-4.19,12,0a17.36,17.36,0,0,0,2.47-1c-.23-5.68,2.81-8.73,8.49-8.49a18.39,18.39,0,0,0,1-2.47c-4.19-3.85-4.19-8.17,0-12a18.39,18.39,0,0,0-1-2.47c-5.68.24-8.72-2.81-8.49-8.49a17.36,17.36,0,0,0-2.47-1c-3.85,4.19-8.16,4.19-12,0a17.36,17.36,0,0,0-2.47,1c.23,5.68-2.82,8.73-8.5,8.49a21.42,21.42,0,0,0-1,2.47c4.19,3.85,4.19,8.17,0,12a21.42,21.42,0,0,0,1,2.47,12,12,0,0,1,2.36.11" class="cls-2"/><path d="M18.15,24.91a6,6,0,1,1,6.84,5,5.94,5.94,0,0,1-3-.32" class="cls-2"/></g></g></svg>